<?xml version="1.0" encoding="utf-8"?>
<!-- Generator: Adobe Illustrator 25.2.0, SVG Export Plug-In . SVG Version: 6.00 Build 0)  -->
<svg version="1.1" id="Layer_1" xmlns="http://www.w3.org/2000/svg" xmlns:xlink="http://www.w3.org/1999/xlink" x="0px" y="0px"
	 viewBox="0 0 410 404" style="enable-background:new 0 0 410 404;" xml:space="preserve">
<style type="text/css">
	.st0{fill-rule:evenodd;clip-rule:evenodd;fill:url(#SVGID_1_);stroke:#EA5F1B;stroke-width:8;stroke-miterlimit:10;}
	.st1{fill-rule:evenodd;clip-rule:evenodd;fill:#FF5D01;}
	.st2{fill-rule:evenodd;clip-rule:evenodd;fill:url(#SVGID_2_);}
</style>
<g>
	
		<linearGradient id="SVGID_1_" gradientUnits="userSpaceOnUse" x1="275.1235" y1="-742.4406" x2="211.6992" y2="-524.187" gradientTransform="matrix(1 0 0 1 0 780)">
		<stop  offset="0" style="stop-color:#000014"/>
		<stop  offset="1" style="stop-color:#150426"/>
	</linearGradient>
	<path class="st0" d="M257.5,55.1c2.5,3.1,3.8,7.4,6.4,15.8l56.3,184.9c-20.8-10.8-43.4-18.6-67.3-22.8l-36.6-123.8
		c-0.6-2-2.5-3.4-4.6-3.4c-2.1,0-4,1.4-4.6,3.4L170.9,233c-24,4.2-46.7,12-67.6,22.8l56.5-184.9l0,0c2.6-8.4,3.9-12.7,6.4-15.8
		c2.2-2.8,5.1-4.9,8.4-6.2c3.8-1.5,8.2-1.5,17-1.5H232c8.8,0,13.3,0,17,1.5C252.3,50.2,255.2,52.3,257.5,55.1z"/>
	<path class="st1" d="M264.2,264.6c-9.3,7.9-27.8,13.3-49.1,13.3c-26.2,0-48.1-8.2-53.9-19.1c-2.1,6.3-2.5,13.5-2.5,18.1
		c0,0-1.4,22.6,14.3,38.2c0-8.1,6.6-14.7,14.7-14.7c14,0,13.9,12.2,13.9,22.1c0,0.3,0,0.6,0,0.9c0,15,9.2,27.9,22.2,33.3
		c-1.9-4-3.1-8.5-3.1-13.3c0-14.3,8.4-19.6,18.2-25.8l0,0c7.8-4.9,16.4-10.4,22.3-21.4c3.1-5.7,4.9-12.3,4.9-19.3
		C266.1,272.6,265.4,268.5,264.2,264.6z"/>
	
		<linearGradient id="SVGID_2_" gradientUnits="userSpaceOnUse" x1="258.9552" y1="-602.3796" x2="204.0262" y2="-487.3882" gradientTransform="matrix(1 0 0 1 0 780)">
		<stop  offset="0" style="stop-color:#FF1639"/>
		<stop  offset="1" style="stop-color:#FF1639;stop-opacity:0"/>
	</linearGradient>
	<path class="st2" d="M264.2,264.6c-9.3,7.9-27.8,13.3-49.1,13.3c-26.2,0-48.1-8.2-53.9-19.1c-2.1,6.3-2.5,13.5-2.5,18.1
		c0,0-1.4,22.6,14.3,38.2c0-8.1,6.6-14.7,14.7-14.7c14,0,13.9,12.2,13.9,22.1c0,0.3,0,0.6,0,0.9c0,15,9.2,27.9,22.2,33.3
		c-1.9-4-3.1-8.5-3.1-13.3c0-14.3,8.4-19.6,18.2-25.8l0,0c7.8-4.9,16.4-10.4,22.3-21.4c3.1-5.7,4.9-12.3,4.9-19.3
		C266.1,272.6,265.4,268.5,264.2,264.6z"/>
</g>
</svg>
