<?xml version="1.0" encoding="UTF-8"?>
<svg xmlns="http://www.w3.org/2000/svg" height="40" viewBox="0 0 40 40" width="40">
  <path d="m211.993 289.003358c-.553777.022671-1.110829.15545-1.641931.406439l-10.363373 4.913068c-.281755.132779-.404818.472818-.268801.754577l1.777982 3.747023c.064771.136021.181359.239655.320618.291472.142496.051817.297947.0421.433977-.022671l1.787681-.848512c1.191788-.563518 2.607052-.142496 3.225579.958612.343285.612103.404819 1.340772.171643 1.998183-.216984.608869-.657411 1.097854-1.240372 1.373147l-1.871873.887353c-.136018.064771-.239651.181359-.291468.320618-.051817.142497-.0421.297947.022667.433977l2.166608 4.566516c.132779.281756.472818.404819.754578.268801l3.646622-1.729398.696294 1.470314c.404818.854978 1.120529 1.502689 2.014391 1.82329.388626.139259.790186.207268 1.195021.207268.602361 0 1.201488-.152213 1.739098-.453418 1.619257-.906795 2.247567-2.96977 1.428198-4.699168l-.660686-1.392589 3.643389-1.729398c.278517-.126304.40158-.463118.265559-.744878l-4.913068-10.36503c-.756194-1.59339-2.378725-2.503418-4.038482-2.435393zm.046959 1.131887c1.219313-.050196 2.411101.616953 2.964878 1.787682l4.67015 9.854739-3.643388 1.726164c-.281756.13278-.404819.472819-.268802.754578l.903562 1.904291c.563519 1.191788.142497 2.607051-.958612 3.222345-.621802.346527-1.33103.40806-1.998182.168405-.608869-.220221-1.097855-.660686-1.373147-1.243605l-.939171-1.985249c-.064771-.136017-.181359-.239651-.320617-.291467-.061534-.022671-.126305-.032388-.191076-.032388-.0842 0-.165167.019433-.242893.055054l-3.646622 1.731015-1.680815-3.542988 1.360172-.644478c.854979-.404818 1.502689-1.120529 1.823291-2.017624.343284-.968312.249367-2.033791-.249368-2.930886-.906795-1.619256-2.969769-2.247567-4.699168-1.428197l-1.275979.605594-1.292189-2.723619 9.851837-4.67015c.390247-.184597.799928-.281755 1.206379-.297947zm-26.77481 7.139535c-2.3512 0-4.265149 1.913991-4.265149 4.26515v22.94202c0 2.351201 1.913991 4.265149 4.265149 4.265149h22.938704c2.3512 0 4.26527-1.91399 4.26527-4.265149v-11.467694c.006355-.314139-.249488-.566752-.560406-.566752h-4.602166c-.314139 0-.566752.252609-.566752.566752v2.10505c0 1.318096-.987754 2.415951-2.247567 2.503418-.709228.048579-1.376381-.200793-1.878341-.702762-.456652-.459885-.709228-1.065479-.709228-1.709956v-2.19575c0-.314139-.252609-.566752-.566752-.566752h-4.035248v-3.921873h1.502689c.948912 0 1.839498-.369193 2.513118-1.042804.722202-.72867 1.097854-1.732632 1.02987-2.755994-.126305-1.852474-1.72289-3.303346-3.633647-3.303346h-1.411989v-3.58183c0-.314139-.252609-.566877-.566752-.566877zm.003238 1.133504h10.904341v3.581831c0 .314138.252609.566752.566752.566752h1.978741c1.318096 0 2.419184.987754 2.503417 2.247567.04858.699527-.207267 1.382847-.699527 1.87834-.456652.456652-1.065479.709228-1.709957.709228h-2.069441c-.314139 0-.566752.252609-.566752.566752v4.488584h-3.468497v-1.502689c0-.948912-.369193-1.839499-1.042804-2.513118-.728669-.722203-1.729398-1.097854-2.755993-1.02987-1.852474.126304-3.303346 1.72289-3.303346 3.633647v1.41203h-3.468495v-10.907284c0-1.726165 1.405522-3.13177 3.131685-3.13177zm3.978581 10.118797c.603978.022671 1.183705.27366 1.61764.704378.456652.456652.709228 1.065479.709228 1.709957v2.069441c0 .314139.252609.566752.566752.566752h4.035249v3.468496h-1.505923c-.948912 0-1.839499.369194-2.509884 1.039571-.725436.725436-1.104363 1.732632-1.033104 2.759227.126304 1.852474 1.72289 3.30658 3.63688 3.30658h1.415264v3.468496h-10.904341c-1.732631-.003239-3.138153-1.408756-3.138153-3.13492v-10.904341h4.035248c.314139 0 .566752-.252609.566752-.566752v-1.978741c0-1.318097.987754-2.419184 2.247567-2.503418.087442-.006477.173263-.008096.260705-.004858zm8.058974 5.053596h3.468496v1.628997c0 .945637.369193 1.836266 1.039571 2.509885.725436.725436 1.732631 1.104362 2.755994 1.033104 1.852473-.126305 3.303345-1.72289 3.303345-3.633647v-1.538339h3.468497v10.904382c0 1.726164-1.405522 3.131686-3.131687 3.131686h-10.901024v-4.035248c0-.314139-.25261-.566752-.566753-.566752h-1.981974c-1.318097 0-2.419184-.987754-2.506651-2.247567-.048579-.709228.200792-1.37638.702761-1.878341.456652-.456651 1.062246-.705994 1.709956-.705994h2.072675c.314139 0 .566752-.252609.566752-.566752z" fill-rule="evenodd" transform="translate(-181 -289)"></path>
</svg>
