<svg width="174" height="192" viewBox="0 0 174 192" fill="none" xmlns="http://www.w3.org/2000/svg">
<g clip-path="url(#clip0)">
<path d="M66.6935 7.72396L70.2312 5.68149L70.4812 6.1145L72.25 5.09327C72.8099 4.77002 73.3777 4.4666 73.9525 4.18302L73.7313 3.73462C74.9134 3.15143 76.1246 2.6507 77.3567 2.23242L77.5174 2.70588C78.7417 2.29025 79.9869 1.95741 81.2447 1.70736L81.1472 1.21696C82.434 0.961151 83.7338 0.790557 85.0379 0.705178L85.0705 1.20411C86.3554 1.11999 87.6446 1.11999 88.9294 1.20411L88.9621 0.705177C90.2662 0.790556 91.566 0.961151 92.8528 1.21696L92.7553 1.70736C94.0131 1.95741 95.2583 2.29025 96.4826 2.70588L96.6433 2.23242C97.8754 2.6507 99.0865 3.15143 100.269 3.73461L100.047 4.18302C100.622 4.4666 101.19 4.77001 101.75 5.09327L103.519 6.1145L103.769 5.68148L107.306 7.72396L107.056 8.15697L110.594 10.1994L110.844 9.76642L114.382 11.8089L114.132 12.2419L117.669 14.2844L117.919 13.8514L121.457 15.8938L121.207 16.3268L124.745 18.3693L124.995 17.9363L128.532 19.9788L128.282 20.4118L131.82 22.4542L132.07 22.0212L135.608 24.0637L135.358 24.4967L138.895 26.5392L139.145 26.1062L142.683 28.1486L142.433 28.5816L145.971 30.6241L146.221 30.1911L149.758 32.2336L149.508 32.6666L153.046 34.7091L153.296 34.276L156.834 36.3185L156.584 36.7515L158.353 37.7728C158.912 38.096 159.459 38.4361 159.992 38.7921L160.27 38.3763C161.366 39.1085 162.405 39.907 163.383 40.7649L163.054 41.1408C164.026 41.9932 164.937 42.9052 165.782 43.8694L166.158 43.5398C167.023 44.5263 167.821 45.5667 168.547 46.6533L168.131 46.9311C168.846 48.0018 169.491 49.1182 170.06 50.273L170.509 50.0518C171.087 51.2239 171.589 52.4348 172.011 53.6772L171.537 53.8379C171.95 55.0522 172.284 56.297 172.536 57.5651L173.027 57.4676C173.281 58.7437 173.452 60.043 173.538 61.3583L173.04 61.3909C173.081 62.0305 173.103 62.674 173.103 63.3205V65.363H173.603V69.4479H173.103V73.5328H173.603V77.6178H173.103V81.7027H173.603V85.7877H173.103V89.8726H173.603V93.9575H173.103V98.0425H173.603V102.127H173.103V106.212H173.603V110.297H173.103V114.382H173.603V118.467H173.103V122.552H173.603V126.637H173.103V128.679C173.103 129.326 173.081 129.969 173.04 130.609L173.538 130.642C173.452 131.957 173.281 133.256 173.027 134.532L172.536 134.435C172.284 135.703 171.95 136.948 171.537 138.162L172.011 138.323C171.589 139.565 171.087 140.776 170.509 141.948L170.06 141.727C169.491 142.882 168.846 143.998 168.131 145.069L168.547 145.347C167.821 146.433 167.023 147.474 166.158 148.46L165.782 148.131C164.937 149.095 164.026 150.007 163.054 150.859L163.383 151.235C162.405 152.093 161.366 152.892 160.27 153.624L159.992 153.208C159.459 153.564 158.912 153.904 158.353 154.227L156.584 155.248L156.834 155.681L153.296 157.724L153.046 157.291L149.508 159.333L149.758 159.766L146.221 161.809L145.971 161.376L142.433 163.418L142.683 163.851L139.145 165.894L138.895 165.461L135.358 167.503L135.608 167.936L132.07 169.979L131.82 169.546L128.282 171.588L128.532 172.021L124.995 174.064L124.745 173.631L121.207 175.673L121.457 176.106L117.919 178.149L117.669 177.716L114.132 179.758L114.382 180.191L110.844 182.234L110.594 181.801L107.056 183.843L107.306 184.276L103.769 186.318L103.519 185.885L101.75 186.907C101.19 187.23 100.622 187.533 100.047 187.817L100.269 188.265C99.0866 188.849 97.8754 189.349 96.6433 189.768L96.4826 189.294C95.2583 189.71 94.0131 190.043 92.7553 190.293L92.8528 190.783C91.566 191.039 90.2662 191.209 88.9621 191.295L88.9295 190.796C87.6446 190.88 86.3554 190.88 85.0706 190.796L85.0379 191.295C83.7338 191.209 82.434 191.039 81.1472 190.783L81.2447 190.293C79.9869 190.043 78.7417 189.71 77.5174 189.294L77.3567 189.768C76.1246 189.349 74.9135 188.849 73.7313 188.265L73.9526 187.817C73.3777 187.533 72.8099 187.23 72.25 186.907L70.4812 185.886L70.2312 186.319L66.6935 184.276L66.9435 183.843L63.4059 181.801L63.1559 182.234L59.6182 180.191L59.8682 179.758L56.3305 177.716L56.0805 178.149L52.5429 176.106L52.7929 175.673L49.2552 173.631L49.0052 174.064L45.4676 172.021L45.7176 171.588L42.1799 169.546L41.9299 169.979L38.3922 167.936L38.6422 167.503L35.1046 165.461L34.8546 165.894L31.3169 163.851L31.5669 163.418L28.0293 161.376L27.7793 161.809L24.2416 159.766L24.4916 159.333L20.954 157.291L20.704 157.724L17.1663 155.682L17.4163 155.248L15.6475 154.227C15.0876 153.904 14.5409 153.564 14.0079 153.208L13.7302 153.624C12.6341 152.892 11.5948 152.093 10.6166 151.235L10.9462 150.859C9.97414 150.007 9.06329 149.095 8.21784 148.131L7.84188 148.46C6.97694 147.474 6.17931 146.433 5.45332 145.347L5.86908 145.069C5.15379 143.998 4.50921 142.882 3.93963 141.727L3.49121 141.948C2.9131 140.776 2.41095 139.565 1.98908 138.323L2.46253 138.162C2.05016 136.948 1.71581 135.703 1.46363 134.435L0.973237 134.532C0.719455 133.256 0.547507 131.957 0.461503 130.642L0.960437 130.609C0.918617 129.969 0.897461 129.326 0.897461 128.679V126.637H0.397461V122.552H0.897461V118.467H0.397461V114.382H0.897461V110.297H0.397461V106.212H0.897461V102.127H0.397461V98.0425H0.897461V93.9575H0.397461V89.8726H0.897461V85.7877H0.397461V81.7027H0.897461V77.6178H0.397461V73.5329H0.897461V69.4479H0.397461V65.363H0.897461V63.3205C0.897461 62.674 0.918617 62.0305 0.960437 61.3909L0.461502 61.3583C0.547505 60.043 0.719454 58.7437 0.973236 57.4676L1.46363 57.5651C1.71581 56.297 2.05016 55.0522 2.46253 53.8379L1.98908 53.6772C2.41095 52.4348 2.9131 51.2239 3.49121 50.0518L3.93962 50.273C4.50921 49.1182 5.15379 48.0018 5.86907 46.9311L5.45332 46.6533C6.17931 45.5667 6.97694 44.5263 7.84188 43.5398L8.21784 43.8694C9.06329 42.9052 9.97414 41.9932 10.9462 41.1408L10.6166 40.7649C11.5948 39.907 12.6341 39.1085 13.7302 38.3763L14.0079 38.7921C14.5409 38.4361 15.0876 38.096 15.6475 37.7728L17.4163 36.7515L17.1663 36.3185L20.704 34.276L20.954 34.7091L24.4916 32.6666L24.2416 32.2336L27.7793 30.1911L28.0293 30.6241L31.5669 28.5816L31.3169 28.1486L34.8546 26.1062L35.1046 26.5392L38.6422 24.4967L38.3922 24.0637L41.9299 22.0212L42.1799 22.4542L45.7176 20.4118L45.4676 19.9788L49.0052 17.9363L49.2552 18.3693L52.7929 16.3268L52.5429 15.8938L56.0805 13.8514L56.3305 14.2844L59.8682 12.2419L59.6182 11.8089L63.1558 9.76643L63.4058 10.1994L66.9435 8.15697L66.6935 7.72396Z" stroke="#21324B" stroke-dasharray="4 4"/>
</g>
<defs>
<clipPath id="clip0">
<rect width="174" height="192" fill="white"/>
</clipPath>
</defs>
</svg>
