<?xml version="1.0" encoding="UTF-8"?>
<svg xmlns="http://www.w3.org/2000/svg" height="34" viewBox="0 0 40 34" width="40">
  <g fill-rule="evenodd">
    <path d="m39.3755828 7.42038848c-.3468949 0-.6244172-.27909257-.6244172-.6244172v-4.608957c0-.51878013-.4194401-.93817988-.9381799-.93817988h-35.62597134c-.51878013 0-.93817988.41944011-.93817988.93817988v4.608957c0 .34689486-.27909257.6244172-.6244172.6244172-.34689486 0-.62441728-.27751427-.62441728-.6244172v-4.608957c0-1.20624857.98234005-2.18701428 2.18701436-2.18701428h35.62597134c1.2062486 0 2.1870143.98233997 2.1870143 2.18701428v4.608957c0 .34689486-.2775143.6244172-.6244172.6244172z"></path>
    <path d="m37.8130261 33.073203h-35.62597218c-1.20624898 0-2.18701456-.9823408-2.18701456-2.1870151v-24.09025698c0-.34689486.27909245-.6244172.62441708-.6244172h38.75108196c.3468949 0 .6244172.27909257.6244172.6244172v24.08864228c0 1.2062486-.9807657 2.1886298-2.1870143 2.1886298zm-36.56407052-25.65281452v23.46418472c0 .5187802.41944011.9381799.93817988.9381799h35.62597134c.5187801 0 .9381799-.4194401.9381799-.9381799v-23.46418472z"></path>
    <path d="m5.49502604 4.62143001c-.50299714 0-.91137705-.40837991-.91137705-.91137705s.40837991-.91137705.91137705-.91137705.91137705.40837991.91137705.91137705-.40995417.91137705-.91137705.91137705z"></path>
    <path d="m9.08878538 4.62143001c-.50299713 0-.91137704-.40837991-.91137704-.91137705s.40837991-.91137705.91137704-.91137705c.50299714 0 .91137702.40837991.91137702.91137705s-.40837988.91137705-.91137702.91137705z"></path>
    <path d="m12.6821411 4.62143001c-.5029972 0-.9113771-.40837991-.9113771-.91137705s.4083799-.91137705.9113771-.91137705c.5029971 0 .911377.40837991.911377.91137705s-.4083799.91137705-.911377.91137705z"></path>
    <path d="m20.000041 27.6347298c-2.1412799 0-4.1532281-.8341171-5.6669423-2.346257-1.5137142-1.5137142-2.346257-3.5257028-2.346257-5.6669424 0-2.1412799.8341171-4.1532281 2.346257-5.6669423 1.5137142-1.5137142 3.5257027-2.346257 5.6669423-2.346257s4.1532281.8341171 5.6669423 2.346257c1.5137142 1.5137142 2.346257 3.5257028 2.346257 5.6669423 0 2.14128-.834117 4.1532282-2.346257 5.6669424-1.5137142 1.5137142-3.5257027 2.346257-5.6669423 2.346257zm0-14.7758689c-3.7291056 0-6.7628714 3.0337254-6.7628714 6.7628714 0 3.7291459 3.0337255 6.7628714 6.7628714 6.7628714 3.729146 0 6.7628714-3.0337255 6.7628714-6.7628714 0-3.729146-3.0337254-6.7628714-6.7628714-6.7628714z"></path>
    <path d="m18.4451538 22.9373719c-.1592549 0-.320088-.0599189-.4430944-.1829052l-2.2737199-2.2737198c-.2444022-.2444023-.2444022-.6401598 0-.8829999.2444023-.2444023.6401599-.2444023.883 0l1.8306658 1.8306657 4.9431851-4.9399558c.2444022-.2444023.6401598-.2444023.8829999 0 .2444023.2444023.2444023.6401598 0 .8829999l-5.3799421 5.3799421c-.1229903.1261429-.2822451.1860618-.4430944.1860618z"></path>
  </g>
</svg>
