<svg height="40" viewBox="0 0 32 40" width="32" xmlns="http://www.w3.org/2000/svg"><g fill-rule="evenodd"><path d="m30.2010405 6.07423923-5.7966885-5.37264131c-.487097-.45162889-1.1258104-.70159792-1.7902887-.70159792h-18.41900983c-2.31772575.00483918-4.19505347 1.88546183-4.19505347 4.20331145l.00161031 31.59337715c-.00161031 2.3177257 1.87579999 4.1983566 4.19340187 4.2033114h22.66113382c2.3161154-.0048388 4.1934019-1.8854618 4.1934019-4.2033114v-27.78355841c-.0016103-.73710723-.3096742-1.43870515-.8483835-1.93868451zm-6.6740988-4.42586399 5.7966885 5.36768653c.1129031.10483918.2080639.22903093.2774186.36612577h-5.6563029c-.4709526-.00322474-.8564351-.37902886-.8693588-.84999381l-.1-5.18848837h-.0016144c.2064494.05645154.3951567.16128659.553202.30483504zm6.2306468 34.14798296c.0016088 1.6048161-1.2983623 2.9080491-2.9031767 2.91288h-22.6611338c-1.6048144-.0048388-2.90482678-1.3080639-2.90317676-2.91288v-31.59337707c-.00161286-1.60481027 1.29836236-2.9080474 2.90317676-2.91287419h17.4883356l.1016103 5.26281019h.0016103c.0290351 1.17420207.985466 2.11449688 2.1596681 2.12254841h5.8127916z"/><path d="m18.172055 19.0549569-1.9048268-1.6935464c-.2145134-.2064495-.4967587-.3274165-.7935505-.3419299h-.0677402c-.0258062 0-.0532268.0016103-.0806433.0064495-.2951567.0177422-.5741773.1435484-.7838474.3532226l-1.8677072 1.861266v-.0016103c-.2516123.2532227-.2516123.6629093.0016145.9144886.2516123.2516124.6612989.2516124.9128783-.0016144l1.1742021-1.1677196v5.2661134-.0016144c0 .3564474.2887072.6451546.6451546.6451546.3548371 0 .6451546-.2887072.6451546-.6451546v-5.3532351l1.2628928 1.1225897v.0016144c.2661258.2354804.6741814.2112887.911268-.0564515.2370948-.2661258.212899-.6757918-.0548371-.911268z"/></g></svg>