<?xml version="1.0" encoding="UTF-8"?>
<svg xmlns="http://www.w3.org/2000/svg" height="40" viewBox="0 0 40 40" width="40">
  <g fill-rule="evenodd">
    <path d="m39.8469977 7.9704302c-.1232612-.14409655-.3020819-.22742918-.4930625-.22742918h-30.07086057l-.68230533-3.98609954c-.37152574-2.17704821-2.24304765-3.75690148-4.45151781-3.75690148h-3.50343474c-.35763697 0-.64581675.28819311-.64581675.64581675 0 .3558992.28819311.64581674.64581675.64581674h3.50343474c1.57811995 0 2.91490862 1.12847932 3.18050637 2.68402169l3.75343484 21.93225852v.0017377l.5381732 3.2308615c.052084.3107618.3211795.5399066.6371502.5399066h23.6562483c.3159706 0 .5850617-.2274292.6371501-.5399066l3.4392153-20.64738491c.0312487-.18750063-.0208353-.3784679-.1440965-.52257335zm-4.4790731 20.4167158h-22.5642532l-3.22566149-19.35405814h29.01353179z"></path>
    <path d="m22.104037 22.3765303c.1215279.1302078.2916642.2048605.4704849.2048605.1788163 0 .3489571-.072915.4704849-.2048605l6.0435044-6.4515009c.2430557-.2604155.2309002-.6683943-.0295154-.9114589-.2604155-.2430557-.6683943-.2309003-.9114589.0295153l-5.5728416 5.9497273-2.550334-2.7239324c-.2430557-.2604156-.6527944-.2743044-.9114589-.0295153-.2604156.2430557-.2725666.6527944-.0295109.9114589z"></path>
    <path d="m17.6338527 33.5479911c-1.779496 0-3.2256615 1.4478989-3.2256615 3.2256616 0 1.7777631 1.4478988 3.2256619 3.2256615 3.2256619 1.779496 0 3.2256616-1.4478988 3.2256616-3.2256619 0-1.7794961-1.4461656-3.2256616-3.2256616-3.2256616zm0 5.16129c-1.0676798 0-1.9357613-.868037-1.9357613-1.9357618 0-1.0676798.868037-1.9357613 1.9357613-1.9357613 1.0676799 0 1.9357614.8680371 1.9357614 1.9357613 0 1.0676803-.8680371 1.9357618-1.9357614 1.9357618z"></path>
    <path d="m29.8404159 33.5479911c-1.779496 0-3.2256615 1.4478989-3.2256615 3.2256616 0 1.7777631 1.4461655 3.2256619 3.2256615 3.2256619s3.2256615-1.4478988 3.2256615-3.2256619c0-1.7794961-1.4478988-3.2256616-3.2256615-3.2256616zm0 5.16129c-1.0676798 0-1.9357614-.868037-1.9357614-1.9357618 0-1.0676798.8680371-1.9357613 1.9357614-1.9357613s1.9357614.8680371 1.9357614 1.9357613c0 1.0676803-.8697704 1.9357618-1.9357614 1.9357618z"></path>
  </g>
</svg>
