<?xml version="1.0" encoding="UTF-8"?>
<svg xmlns="http://www.w3.org/2000/svg" height="40" viewBox="0 0 40 40" width="40">
  <g fill-rule="evenodd">
    <path d="m21.9248878 28.9751559h-4.3688175c-.3375013 0-.6062424-.2687531-.6062424-.6062424v-1.9000076c-1.3187653-.3062492-2.5624903-.8187633-3.7124949-1.5375262l-1.3437653 1.3437654c-.237501.237501-.6187625.237501-.8562435 0l-3.08753232-3.0875323c-.23750095-.237501-.23750095-.6187625 0-.8562435l1.34376537-1.3437653c-.71876287-1.1500046-1.23124492-2.3937696-1.53752615-3.7124949h-1.88752755c-.33750135 0-.60624242-.2687531-.60624242-.6062424v-4.3688175c0-.3375013.26875307-.6062424.60624242-.6062424h1.89376758c.30624922-1.3187653.81876327-2.56249027 1.53752615-3.71249487l-1.34376538-1.34376538c-.23750095-.23750095-.23750095-.61876247 0-.85624342l3.0875324-3.08753235c.1125004-.11250045.268753-.1750007.4312417-.1750007.1624886 0 .3125012.06250025.4312417.1750007l1.3437654 1.34376537c1.1500046-.71876287 2.3937696-1.23124492 3.7124948-1.53752615v-1.89376757c-.0125-.33750135.2625011-.60624243.5937624-.60624243h4.3688175c.3375013 0 .6062424.26875308.6062424.60624243v1.89376757c1.3187653.30624923 2.5687703.81876328 3.7124949 1.53752615l1.3437653-1.34376537c.2250009-.2250009.6312426-.2250009.8562435 0l3.0875323 3.08753235c.237501.23750095.237501.61876247 0 .85624342l-1.3437654 1.34376538c.7187629 1.1500046 1.231245 2.39376957 1.5375262 3.71249487h1.8937676c.3375013 0 .6062424.2687531.6062424.6062424v4.3688175c0 .3375013-.2687531.6062424-.6062424.6062424h-1.8937676c-.3062492 1.3187653-.8187633 2.5624903-1.5375262 3.7124949l1.3437654 1.3437653c.1125005.1125005.1750007.2687531.1750007.4312418 0 .1624886-.0625002.3125012-.1750007.4312417l-3.0875323 3.0875323c-.237501.237501-.6187625.237501-.8562435 0l-1.3437653-1.3375253c-1.1437646.7187629-2.3875296 1.2312449-3.7124949 1.5375261v1.9000076c0 .3187533-.2687531.5937624-.6062424.5937624zm-3.7624951-1.2124848h3.1562527v-1.7875272c0-.2937532.2062488-.5437622.4937619-.5937624 1.5062461-.2875011 2.9062517-.8624834 4.1688167-1.7250069.237501-.1625006.5624823-.1375005.7687631.0750003l1.262485 1.2624851 2.231249-2.2312489-1.2624851-1.2624851c-.2062488-.2062488-.2375009-.5312421-.0750003-.7687631.8624835-1.262485 1.4437658-2.6687706 1.7250069-4.1688166.0562482-.2875012.3062492-.493762.5937624-.493762h1.7812471v-3.1562526h-1.7812471c-.2937532 0-.5437622-.2062489-.5937624-.493762-.2812491-1.500006-.8624834-2.90625165-1.7250069-4.1688167-.1625006-.23750095-.1312485-.56248225.0750003-.76876308l1.2624851-1.26248505-2.231249-2.23124892-1.262485 1.26248505c-.2062488.20624882-.5312421.23750095-.7687631.0750003-1.262485-.86248345-2.6624906-1.44376578-4.1688167-1.7250069-.2875011-.05624823-.4937619-.30624923-.4937619-.59376238v-1.79376717h-3.1562527v1.78124712c0 .29375318-.2062488.54376218-.4937619.59376238-1.500006.28124912-2.9062517.86248345-4.1688167 1.7250069-.243753.16250065-.5624823.13124852-.7687631-.0750003l-1.262485-1.26248505-2.22500895 2.24376897 1.26248505 1.26248505c.2062488.20624883.237501.53124213.0750003.76876308-.86248345 1.26248505-1.44376577 2.6687707-1.7250069 4.1688167-.05624822.2875011-.30624922.493762-.59376237.493762h-1.78124713v3.1562526h1.78124713c.29375317 0 .54376217.2062488.59376237.493762.28124913 1.500006.86248345 2.9062516 1.7250069 4.1688166.1625007.237501.1312485.5624823-.0750003.7687631l-1.26248505 1.2624851 2.22500895 2.2250089 1.262485-1.2624851c.2062488-.2062488.5312421-.2375009.7687631-.0750003 1.262485.8624835 2.6687707 1.4437658 4.1688167 1.7250069.2875011.0562482.4937619.3062492.4937619.5937624z"></path>
    <path d="m19.7436791 20.8999236c-3.5375342 0-6.4124257-2.8750115-6.4124257-6.4124257 0-3.5374141 2.8750115-6.4124256 6.4124257-6.4124256 3.5374141 0 6.4124256 2.8750115 6.4124256 6.4124256 0 3.5312542-2.8750115 6.4124257-6.4124256 6.4124257zm0-11.61244645c-2.8687715 0-5.2000208 2.33124935-5.2000208 5.20002075 0 2.8687715 2.3312493 5.2000209 5.2000208 5.2000209 2.8687714 0 5.2000208-2.3312494 5.2000208-5.2000209 0-2.8687714-2.3312494-5.20002075-5.2000208-5.20002075z"></path>
    <path d="m34.8437395 40h-30.20012085c-2.56249025 0-4.64361865-2.0812483-4.64361865-4.6436186 0-2.5623702 2.0812484-4.6436185 4.64361865-4.6436185h30.20652085c2.5624902 0 4.6436186 2.0812483 4.6436186 4.6436185 0 2.5623703-2.0875284 4.6436186-4.6500186 4.6436186zm-30.20012085-8.0688323c-1.89376757 0-3.43125372 1.5375262-3.43125372 3.4312537 0 1.8937272 1.53752615 3.4312538 3.43125372 3.4312538h30.20652085c1.8937676 0 3.4312537-1.5375266 3.4312537-3.4312538 0-1.8937275-1.5375261-3.4312537-3.4312537-3.4312537z"></path>
    <path d="m26.3561055 37.7811923h-21.1752847c-1.33752535 0-2.4250101-1.0875243-2.4250101-2.4250109 0-1.3374853 1.08752475-2.4250097 2.4250101-2.4250097h21.1752847c1.3375254 0 2.4250097 1.0875244 2.4250097 2.4250097 0 1.3374866-1.0875243 2.4250109-2.4250097 2.4250109zm-21.1752847-3.6312557c-.66876267 0-1.21248485.5437622-1.21248485 1.2124848 0 .6687239.54376218 1.2124861 1.21248485 1.2124861h21.1752847c.6687627 0 1.2124849-.5437622 1.2124849-1.2124861 0-.6687226-.5437622-1.2124848-1.2124849-1.2124848z"></path>
    <path d="m4.6812188 37.71239c-.08124832 0-.16875267-.01875-.250001-.0562482-.30624922-.1375005-.43752175-.500002-.3000012-.8000032l1.6250065-3.5624934c.13750055-.3062493.500002-.4375218.8000032-.3000012.30624923.1375005.43752175.500002.3000012.8000032l-1.6250065 3.5624934c-.1000004.2250009-.31875327.3562494-.5500022.3562494z"></path>
    <path d="m7.3312294 37.7811923c-.08124832 0-.16875267-.0187501-.250001-.0562482-.30624922-.1375006-.43752175-.500002-.3000012-.8000032l1.65624663-3.6312557c.13750055-.3062493.500002-.4375218.8000032-.3000012.30624922.1375005.43752175.500002.3000012.8000032l-1.65624663 3.6312557c-.1000004.2250009-.31875327.3562494-.5500022.3562494z"></path>
    <path d="m10.0248402 37.7811923c-.08750037 0-.1687527-.0187501-.25000102-.0562482-.30624923-.1375006-.43752175-.500002-.3000012-.8000032l1.65624662-3.6312557c.1375006-.3062493.500002-.4375218.8000032-.3000012.3062492.1375005.4375218.500002.3000012.8000032l-1.6562466 3.6312557c-.1000004.2250009-.3250013.3562494-.5500022.3562494z"></path>
    <path d="m12.7060509 37.7811923c-.0875003 0-.1687527-.0187501-.250001-.0562482-.3062492-.1375006-.4375217-.500002-.3000012-.8000032l1.6562466-3.6312557c.1375006-.3062493.500002-.4375218.8000032-.3000012.3062493.1375005.4375218.500002.3000012.8000032l-1.6562466 3.6312557c-.1000004.2250009-.3187533.3562494-.5500022.3562494z"></path>
    <path d="m15.3936617 37.7811923c-.0812484 0-.1687527-.0187501-.250001-.0562482-.3062493-.1375006-.4375218-.500002-.3000012-.8000032l1.6562466-3.6312557c.1375005-.3062493.500002-.4375218.8000032-.3000012.3062492.1375005.4375217.500002.3000012.8000032l-1.6562466 3.6312557c-.1000004.2250009-.3187533.3562494-.5500022.3562494z"></path>
    <path d="m18.0812724 37.7811923c-.0812483 0-.1687527-.0187501-.250001-.0562482-.3062492-.1375006-.4375217-.500002-.3000012-.8000032l1.6562466-3.6312557c.1375006-.3062493.500002-.4375218.8000032-.3000012.3062493.1375005.4375218.500002.3000012.8000032l-1.6562466 3.6312557c-.1000004.2250009-.3187533.3562494-.5500022.3562494z"></path>
    <path d="m20.7624831 37.7811923c-.0812483 0-.1687526-.0187501-.250001-.0562482-.3062492-.1375006-.4375217-.500002-.3000012-.8000032l1.6562467-3.6312557c.1375005-.3062493.500002-.4375218.8000032-.3000012.3062492.1375005.4375217.500002.3000012.8000032l-1.6562467 3.6312557c-.0937523.2250009-.3187532.3562494-.5500022.3562494z"></path>
    <path d="m23.4560939 37.7811923c-.0812483 0-.1687527-.0187501-.250001-.0562482-.3062492-.1375006-.4375217-.500002-.3000012-.8000032l1.6562466-3.6312557c.1375006-.3062493.500002-.4375218.8000032-.3000012.3062493.1375005.4375218.500002.3000012.8000032l-1.6562466 3.6312557c-.1000004.2250009-.3250013.3562494-.5500022.3562494z"></path>
  </g>
</svg>
