<?xml version="1.0" encoding="UTF-8"?>
<svg xmlns="http://www.w3.org/2000/svg" height="40" viewBox="0 0 40 40" width="40">
  <g fill-rule="evenodd">
    <path d="m.80042082 20.8001037c.4407404 0 .80047571-.3573568.80047571-.8004757 0-10.14423813 8.25481048-18.39904861 18.39904857-18.39904861 10.1442381 0 18.3990486 8.25481048 18.3990486 18.39904861 0 10.1442381-8.2548105 18.3990485-18.3990486 18.3990485-5.3150367 0-10.22291342-2.2227304-13.71024303-6.139115h4.30970023c.4407404 0 .8004757-.3573568.8004757-.8004757 0-.4407404-.3573567-.8004757-.8004757-.8004757h-5.99878022c-.03573323 0-.0643247.0166743-.10005794.0190589-.05002896.0071479-.09767938.0142957-.14770835.0285915-.05479218.0190589-.10244259.0428811-.15247156.0714726-.02620681.0166742-.05717684.0190589-.08338365.0381178-.01667429.0119111-.02382216.0285854-.03811789.0428811-.04050255.0357333-.07147257.0738512-.10482725.1167384-.03335468.0428811-.06670936.0833836-.08814686.1334126-.01905895.0381179-.02859147.0786204-.0428811.1215015-.01905895.0595615-.03335468.1191169-.03573934.1834416 0 .0166743-.00952642.0285854-.00952642.0452658v5.9987802c0 .4407404.35735675.8004757.80047571.8004757.4407404 0 .80047571-.3573567.80047571-.8004757v-3.7927606c3.77129265 4.0500106 8.97935536 6.3348885 14.60128686 6.3348885 11.0279633 0 20-8.9720367 20-20 0-11.02796328-8.9720367-20-20-20-11.02796328 0-20 8.97203672-20 20 0 .4407404.35973531.8004757.80047571.8004757z"></path>
    <path d="m19.9996402 25.9798677c3.297167 0 5.9797517-2.6825238 5.9797517-5.9797518 0-3.2972281-2.6825237-5.9797518-5.9797517-5.9797518-3.2972281 0-5.9797518 2.6825237-5.9797518 5.9797518 0 3.297228 2.6825237 5.9797518 5.9797518 5.9797518zm0-10.3583082c2.4156984 0 4.3788003 1.9654804 4.3788003 4.3788003 0 2.4156985-1.9654804 4.3788004-4.3788003 4.3788004-2.4156985 0-4.3788004-1.9654805-4.3788004-4.3788004 0-2.4156984 1.9631019-4.3788003 4.3788004-4.3788003z"></path>
    <path d="m8.77407374 17.6201567c-.38832678.0619401-.67422926.3954747-.67422926.7909615v3.1828744c0 .39309.28588418.7289971.67422926.7909615l2.06074466.3287653c.1905895.643247.4478883 1.2626475.7694935 1.8511268l-1.2269082 1.6914585c-.231092.3192389-.1953527.7576007.080999 1.0339402l2.2489556 2.2489555c.2787363.2787364.7171042.3144696 1.0339401.080999l1.6914586-1.2269081c.5908273.3216174 1.2102583.5789162 1.8535053.7694934l.3287653 2.0607447c.06194.3883268.3978532.6742293.7909615.6742293h3.1828744c.39309 0 .728997-.2858842.7909615-.6742293l.3287652-2.0607447c.6432471-.1905894 1.2626476-.4478882 1.8511268-.7694934l1.6914586 1.2269081c.3168542.231092.7576007.1953527 1.0339401-.080999l2.2489556-2.2489555c.2787363-.2787363.312091-.7171043.080999-1.0339402l-1.2269082-1.6914585c.3216174-.5908274.5789162-1.2102583.7694935-1.8511268l2.0631232-.3287653c.3883268-.06194.6742293-.3978532.6742293-.7909615v-3.1828744c0-.39309-.2858842-.728997-.6742293-.7909615l-2.0631232-.3287652c-.1905895-.6408685-.4478883-1.2626476-.7694935-1.8511268l1.2269082-1.6914586c.231092-.3192388.1953527-.7576007-.080999-1.0339401l-2.2489556-2.2489556c-.2763516-.2787363-.7171042-.312091-1.0339401-.080999l-1.68908 1.2197725c-.5908273-.3216174-1.2102583-.5789162-1.8511268-.7694935l-.3287653-2.06074463c-.06194-.38832678-.3954746-.67422926-.7909615-.67422926h-3.1828744c-.3930899 0-.728997.28588418-.7909614.67422926l-.3287653 2.06074463c-.6432471.1905895-1.2626475.4478883-1.8511268.7694935l-1.6914585-1.2269082c-.3192389-.231092-.7576007-.1953526-1.0339402.080999l-2.2489556 2.2489556c-.2787363.2787363-.312091.7171043-.080999 1.0339402l1.2269082 1.6914585c-.3216174.5908273-.5789162 1.2102583-.7694935 1.8511268zm3.48062086.5598573c.1953527-.8385936.5265026-1.6343122.9839295-2.3680663.1715305-.2763517.1596194-.6289147-.03097-.8909829l-1.131644-1.5604549 1.2841155-1.2841155 1.560455 1.1316439c.2644406.1905895.6146434.2048852.8909828.03097.7361328-.4574147 1.5318514-.7862043 2.3680664-.9839295.3168542-.0738511.5550941-.3311499.6075016-.6527612l.3049431-1.90113747h1.817766l.3025585 1.90113747c.050029.3216174.2906474.5789162.6075016.6527612.836215.1953527 1.6319336.5265026 2.3680663.9839295.2763517.1715305.6289148.1596195.8909829-.03097l1.560455-1.1316439 1.2841155 1.2841155-1.131644 1.5604549c-.1905894.2644406-.2025005.6146434-.03097.8909829.4574147.7361327.7862044 1.5318513.9839295 2.3680663.0738511.3168542.3311499.5574727.6527612.6075016l1.9011375.3025585v1.817766l-1.9011375.3049431c-.3216174.050029-.5789162.2906474-.6527612.6075016-.1953527.8362151-.5265026 1.6319337-.9839295 2.3680664-.1715305.2763516-.1596194.6289147.03097.8909828l1.131644 1.560455-1.2841155 1.2841155-1.560455-1.131644c-.2644406-.1905894-.6146434-.2025005-.8909829-.03097-.7361327.4574147-1.5318513.7862044-2.3680663.9839295-.3168542.0738511-.5550941.33115-.6075016.6527613l-.3025585 1.9011374h-1.817766l-.3049431-1.9011374c-.050029-.3216174-.2906474-.5789163-.6075016-.6527613-.836215-.1953527-1.6343122-.5265026-2.3680664-.9839295-.2763516-.1715305-.6265361-.1596194-.8909828.03097l-1.560455 1.131644-1.2841155-1.2841155 1.131644-1.560455c.1905894-.2644406.2025005-.6146434.03097-.8909828-.4574147-.7337542-.7862044-1.5318513-.9839295-2.3680664-.0738511-.3168542-.3311499-.5550941-.6527613-.6075016l-1.9011374-.3049431v-1.817766l1.9011374-.3025585c.3216175-.0500289.5789163-.2906474.6527613-.6075016z"></path>
  </g>
</svg>
